<svg xmlns="http://www.w3.org/2000/svg" width="1120" height="640" viewBox="0 0 1120 640">
<rect width="100%" height="100%" fill="#ffffff"/>
<style>text{font-family:Arial,sans-serif;fill:#243447}.axis{stroke:#7b8794;stroke-width:1}.grid{stroke:#e5e7eb;stroke-width:1}.title{font-size:20px;font-weight:700}.label{font-size:11px}</style>
<text x="90" y="30" class="title">mcf per-slice IPC: A THP off vs B THP on</text>
<line x1="90" y1="60.0" x2="1090" y2="60.0" class="grid"/>
<text x="82" y="64.0" text-anchor="end" class="label">2.46</text>
<line x1="90" y1="182.5" x2="1090" y2="182.5" class="grid"/>
<text x="82" y="186.5" text-anchor="end" class="label">1.84</text>
<line x1="90" y1="305.0" x2="1090" y2="305.0" class="grid"/>
<text x="82" y="309.0" text-anchor="end" class="label">1.23</text>
<line x1="90" y1="427.5" x2="1090" y2="427.5" class="grid"/>
<text x="82" y="431.5" text-anchor="end" class="label">0.61</text>
<line x1="90" y1="550.0" x2="1090" y2="550.0" class="grid"/>
<text x="82" y="554.0" text-anchor="end" class="label">0.00</text>
<line x1="90" y1="550" x2="1090" y2="550" class="axis"/>
<rect x="113.5" y="350.4" width="13" height="199.6" fill="#64748b"/>
<rect x="130.5" y="364.3" width="13" height="185.7" fill="#dc2626"/>
<text x="128.5" y="568" text-anchor="middle" class="label">1773</text>
<text x="128.5" y="583" text-anchor="middle" class="label">0.005</text>
<rect x="190.4" y="438.2" width="13" height="111.8" fill="#64748b"/>
<rect x="207.4" y="433.7" width="13" height="116.3" fill="#dc2626"/>
<text x="205.4" y="568" text-anchor="middle" class="label">2709</text>
<text x="205.4" y="583" text-anchor="middle" class="label">0.336</text>
<rect x="267.3" y="399.8" width="13" height="150.2" fill="#64748b"/>
<rect x="284.3" y="421.4" width="13" height="128.6" fill="#dc2626"/>
<text x="282.3" y="568" text-anchor="middle" class="label">4019</text>
<text x="282.3" y="583" text-anchor="middle" class="label">0.180</text>
<rect x="344.2" y="60.0" width="13" height="490.0" fill="#64748b"/>
<rect x="361.2" y="75.0" width="13" height="475.0" fill="#dc2626"/>
<text x="359.2" y="568" text-anchor="middle" class="label">5049</text>
<text x="359.2" y="583" text-anchor="middle" class="label">0.144</text>
<rect x="421.2" y="138.8" width="13" height="411.2" fill="#64748b"/>
<rect x="438.2" y="124.3" width="13" height="425.7" fill="#dc2626"/>
<text x="436.2" y="568" text-anchor="middle" class="label">5466</text>
<text x="436.2" y="583" text-anchor="middle" class="label">0.103</text>
<rect x="498.1" y="420.5" width="13" height="129.5" fill="#64748b"/>
<rect x="515.1" y="429.1" width="13" height="120.9" fill="#dc2626"/>
<text x="513.1" y="568" text-anchor="middle" class="label">7363</text>
<text x="513.1" y="583" text-anchor="middle" class="label">0.060</text>
<rect x="575.0" y="406.5" width="13" height="143.5" fill="#64748b"/>
<rect x="592.0" y="405.9" width="13" height="144.1" fill="#dc2626"/>
<text x="590.0" y="568" text-anchor="middle" class="label">8719</text>
<text x="590.0" y="583" text-anchor="middle" class="label">0.002</text>
<rect x="651.9" y="271.0" width="13" height="279.0" fill="#64748b"/>
<rect x="668.9" y="271.3" width="13" height="278.7" fill="#dc2626"/>
<text x="666.9" y="568" text-anchor="middle" class="label">8725</text>
<text x="666.9" y="583" text-anchor="middle" class="label">0.005</text>
<rect x="728.8" y="319.9" width="13" height="230.1" fill="#64748b"/>
<rect x="745.8" y="321.0" width="13" height="229.0" fill="#dc2626"/>
<text x="743.8" y="568" text-anchor="middle" class="label">8837</text>
<text x="743.8" y="583" text-anchor="middle" class="label">0.036</text>
<rect x="805.8" y="196.9" width="13" height="353.1" fill="#64748b"/>
<rect x="822.8" y="184.7" width="13" height="365.3" fill="#dc2626"/>
<text x="820.8" y="568" text-anchor="middle" class="label">9417</text>
<text x="820.8" y="583" text-anchor="middle" class="label">0.038</text>
<rect x="882.7" y="420.3" width="13" height="129.7" fill="#64748b"/>
<rect x="899.7" y="422.6" width="13" height="127.4" fill="#dc2626"/>
<text x="897.7" y="568" text-anchor="middle" class="label">10311</text>
<text x="897.7" y="583" text-anchor="middle" class="label">0.073</text>
<rect x="959.6" y="304.9" width="13" height="245.1" fill="#64748b"/>
<rect x="976.6" y="303.9" width="13" height="246.1" fill="#dc2626"/>
<text x="974.6" y="568" text-anchor="middle" class="label">11026</text>
<text x="974.6" y="583" text-anchor="middle" class="label">0.009</text>
<rect x="1036.5" y="362.4" width="13" height="187.6" fill="#64748b"/>
<rect x="1053.5" y="359.4" width="13" height="190.6" fill="#dc2626"/>
<text x="1051.5" y="568" text-anchor="middle" class="label">13715</text>
<text x="1051.5" y="583" text-anchor="middle" class="label">0.009</text>
<rect x="850" y="45" width="12" height="12" fill="#64748b"/><text x="868" y="55" class="label">A THP off</text>
<rect x="1000" y="45" width="12" height="12" fill="#dc2626"/><text x="1018" y="55" class="label">B THP on</text>
<text x="90" y="615" class="label">x-axis: simpoint id / slice weight; y-axis: IPC</text>
</svg>